<?xml version="1.0" encoding="iso-8859-1"?>
<!-- Generator: Adobe Illustrator 19.0.0, SVG Export Plug-In . SVG Version: 6.00 Build 0)  -->
<svg version="1.1" id="Layer_1" xmlns="http://www.w3.org/2000/svg" xmlns:xlink="http://www.w3.org/1999/xlink" x="0px" y="0px"
	 viewBox="0 0 512 512" style="enable-background:new 0 0 512 512;" xml:space="preserve">
<g transform="translate(1 1)">
	<path style="fill:#FFDD09;" d="M39.421,484.053V198.411c0-12.575,7.186-23.354,17.965-28.744s17.965-17.067,17.965-28.744V52.895
		h44.912v88.028c0,12.575,7.186,23.354,17.965,28.744s17.965,17.067,17.965,28.744v285.642c0,9.881-8.084,17.965-17.965,17.965
		H57.386C47.505,502.018,39.421,493.933,39.421,484.053"/>
	<g>
		<path style="fill:#1CD759;" d="M12.474,376.263h71.86V250.509h-71.86V376.263z"/>
		<path style="fill:#1CD759;" d="M135.533,52.895h-102.4c-1.796,0-2.695-0.898-2.695-2.695V33.133
			c0-13.474,11.677-25.151,25.151-25.151h57.488c13.474,0,25.151,11.677,25.151,25.151V50.2
			C138.228,51.996,137.33,52.895,135.533,52.895"/>
		<path style="fill:#1CD759;" d="M306.2,52.895H203.8c-1.796,0-2.695-0.898-2.695-2.695V33.133
			c0-13.474,11.677-25.151,25.151-25.151h57.488c13.474,0,25.151,11.677,25.151,25.151V50.2
			C308.895,51.996,307.997,52.895,306.2,52.895"/>
		<path style="fill:#1CD759;" d="M476.867,52.895h-102.4c-1.797,0-2.695-0.898-2.695-2.695V33.133
			c0-13.474,11.677-25.151,25.151-25.151h57.488c13.474,0,25.151,11.677,25.151,25.151V50.2
			C479.561,51.996,478.663,52.895,476.867,52.895"/>
	</g>
	<g>
		<path style="fill:#FFDD09;" d="M326.86,484.053V198.411c0-12.575-7.186-23.354-17.965-28.744S290.93,152.6,290.93,140.923V52.895
			h-71.86v88.028c0,12.575-7.186,23.354-17.965,28.744c-10.779,5.389-17.965,17.067-17.965,28.744v285.642
			c0,9.881,8.084,17.965,17.965,17.965h107.789C318.775,502.018,326.86,493.933,326.86,484.053"/>
		<path style="fill:#FFDD09;" d="M470.579,484.053V198.411c0-12.575-7.186-23.354-17.965-28.744s-17.965-17.067-17.965-28.744
			V52.895h-44.912v88.028c0,12.575-7.186,23.354-17.965,28.744c-10.779,5.389-17.965,17.067-17.965,28.744v285.642
			c0,9.881,8.084,17.965,17.965,17.965h80.842C462.495,502.018,470.579,493.933,470.579,484.053"/>
	</g>
	<path style="fill:#FD9808;" d="M479.561,169.667c-10.779-5.389-17.965-17.067-17.965-28.744V52.895h-26.947v88.028
		c0,12.575,7.186,23.354,17.965,28.744s17.965,17.067,17.965,28.744v285.642c0,9.881-8.084,17.965-17.965,17.965h26.947
		c9.881,0,17.965-8.084,17.965-17.965V198.411C497.526,186.733,490.34,175.056,479.561,169.667"/>
	<path style="fill:#FFFFFF;" d="M30.439,169.667c10.779-5.389,17.965-17.067,17.965-28.744V52.895h26.947v88.028
		c0,12.575-7.186,23.354-17.965,28.744s-17.965,17.067-17.965,28.744v285.642c0,9.881,8.084,17.965,17.965,17.965H30.439
		c-9.881,0-17.965-8.084-17.965-17.965V198.411C12.474,186.733,19.66,175.056,30.439,169.667"/>
	<g>
		<path style="fill:#1CD759;" d="M183.14,376.263H255V250.509h-71.86V376.263z"/>
		<path style="fill:#1CD759;" d="M353.807,376.263h71.86V250.509h-71.86V376.263z"/>
	</g>
	<path d="M138.228,511H30.439c-15.27,0-26.947-11.677-26.947-26.947V198.411c0-16.168,8.982-29.642,22.456-36.828
		c8.084-3.593,13.474-11.677,13.474-20.66V43.912h89.825v97.011c0,8.982,5.389,17.067,12.575,20.66
		c14.372,7.186,23.354,21.558,23.354,36.828v285.642C165.175,499.323,153.498,511,138.228,511z M57.386,61.877v79.046
		c0,16.168-8.982,29.642-23.354,36.828c-7.186,3.593-12.575,11.677-12.575,20.66v285.642c0,5.389,3.593,8.982,8.982,8.982h107.789
		c5.389,0,8.982-3.593,8.982-8.982V198.411c0-8.982-5.389-17.067-13.474-20.66c-13.474-7.186-22.456-21.558-22.456-36.828V61.877
		H57.386z"/>
	<path d="M135.533,61.877h-102.4c-6.288,0-11.677-5.389-11.677-11.677V33.133C21.456,14.27,36.726-1,55.589-1h57.488
		c18.863,0,34.133,15.27,34.133,34.133V50.2C147.211,56.488,141.821,61.877,135.533,61.877z M39.421,43.912h89.825V33.133
		c0-8.982-7.186-16.168-16.168-16.168H55.589c-8.982,0-16.168,7.186-16.168,16.168V43.912z"/>
	<path d="M57.386,34.93c-5.389,0-8.982-3.593-8.982-8.982V7.982C48.404,2.593,51.996-1,57.386-1s8.982,3.593,8.982,8.982v17.965
		C66.368,31.337,62.775,34.93,57.386,34.93z"/>
	<path d="M84.333,34.93c-5.389,0-8.982-3.593-8.982-8.982V7.982C75.351,2.593,78.944-1,84.333-1s8.982,3.593,8.982,8.982v17.965
		C93.316,31.337,89.723,34.93,84.333,34.93z"/>
	<path d="M111.281,34.93c-5.389,0-8.982-3.593-8.982-8.982V7.982c0-5.389,3.593-8.982,8.982-8.982c5.389,0,8.982,3.593,8.982,8.982
		v17.965C120.263,31.337,116.67,34.93,111.281,34.93z"/>
	<path d="M308.895,511H201.105c-15.27,0-26.947-11.677-26.947-26.947V198.411c0-16.168,8.982-29.642,22.456-36.828
		c8.084-3.593,13.474-11.677,13.474-20.66V43.912h89.825v97.011c0,8.982,5.389,17.067,12.575,20.66
		c14.372,7.186,23.354,21.558,23.354,36.828v285.642C335.842,499.323,324.165,511,308.895,511z M228.053,61.877v79.046
		c0,16.168-8.982,29.642-23.354,36.828c-8.084,3.593-12.575,11.677-12.575,20.66v285.642c0,5.389,3.593,8.982,8.982,8.982h107.789
		c5.389,0,8.982-3.593,8.982-8.982V198.411c0-8.982-5.389-17.067-13.474-20.66c-13.474-7.186-22.456-21.558-22.456-36.828V61.877
		H228.053z"/>
	<path d="M306.2,61.877H203.8c-6.288,0-11.677-5.389-11.677-11.677V33.133C192.123,14.27,207.393-1,226.256-1h57.488
		c18.863,0,34.133,15.27,34.133,34.133V50.2C317.877,56.488,312.488,61.877,306.2,61.877z M210.088,43.912h89.825V33.133
		c0-8.982-7.186-16.168-16.168-16.168h-57.488c-8.982,0-16.168,7.186-16.168,16.168L210.088,43.912L210.088,43.912z"/>
	<path d="M228.053,34.93c-5.389,0-8.982-3.593-8.982-8.982V7.982c0-5.389,3.593-8.982,8.982-8.982c5.389,0,8.982,3.593,8.982,8.982
		v17.965C237.035,31.337,233.442,34.93,228.053,34.93z"/>
	<path d="M255,34.93c-5.389,0-8.982-3.593-8.982-8.982V7.982C246.018,2.593,249.611-1,255-1c5.389,0,8.982,3.593,8.982,8.982v17.965
		C263.982,31.337,260.389,34.93,255,34.93z"/>
	<path d="M281.947,34.93c-5.389,0-8.982-3.593-8.982-8.982V7.982c0-5.389,3.593-8.982,8.982-8.982c5.389,0,8.982,3.593,8.982,8.982
		v17.965C290.93,31.337,287.337,34.93,281.947,34.93z"/>
	<path d="M479.561,511H371.772c-15.27,0-26.947-11.677-26.947-26.947V198.411c0-16.168,8.982-29.642,22.456-36.828
		c8.084-3.593,13.474-11.677,13.474-20.66V43.912h89.825v97.011c0,8.982,5.389,17.067,12.575,20.66
		c14.372,7.186,23.354,21.558,23.354,36.828v285.642C506.509,499.323,494.832,511,479.561,511z M398.719,61.877v79.046
		c0,16.168-8.982,29.642-23.354,36.828c-8.084,3.593-12.575,11.677-12.575,20.66v285.642c0,5.389,3.593,8.982,8.982,8.982h107.789
		c5.389,0,8.982-3.593,8.982-8.982V198.411c0-8.982-5.389-17.067-13.474-20.66c-13.474-7.186-22.456-21.558-22.456-36.828V61.877
		H398.719z"/>
	<path d="M476.867,61.877h-102.4c-6.288,0-11.677-5.389-11.677-11.677V33.133C362.789,14.27,378.06-1,396.923-1h57.488
		c18.863,0,34.133,15.27,34.133,34.133V50.2C488.544,56.488,483.154,61.877,476.867,61.877z M380.754,43.912h89.825V33.133
		c0-8.982-7.186-16.168-16.168-16.168h-57.488c-8.982,0-16.168,7.186-16.168,16.168V43.912z"/>
	<path d="M398.719,34.93c-5.389,0-8.982-3.593-8.982-8.982V7.982c0-5.389,3.593-8.982,8.982-8.982s8.982,3.593,8.982,8.982v17.965
		C407.702,31.337,404.109,34.93,398.719,34.93z"/>
	<path d="M425.667,34.93c-5.389,0-8.982-3.593-8.982-8.982V7.982c0-5.389,3.593-8.982,8.982-8.982c5.389,0,8.982,3.593,8.982,8.982
		v17.965C434.649,31.337,431.056,34.93,425.667,34.93z"/>
	<path d="M452.614,34.93c-5.389,0-8.982-3.593-8.982-8.982V7.982c0-5.389,3.593-8.982,8.982-8.982s8.982,3.593,8.982,8.982v17.965
		C461.596,31.337,458.004,34.93,452.614,34.93z"/>
	<path d="M84.333,385.246h-71.86c-5.389,0-8.982-3.593-8.982-8.982V250.509c0-5.389,3.593-8.982,8.982-8.982h71.86
		c5.389,0,8.982,3.593,8.982,8.982v125.754C93.316,381.653,89.723,385.246,84.333,385.246z M21.456,367.281h53.895V259.491H21.456
		V367.281z"/>
	<path d="M255,385.246h-71.86c-5.389,0-8.982-3.593-8.982-8.982V250.509c0-5.389,3.593-8.982,8.982-8.982H255
		c5.389,0,8.982,3.593,8.982,8.982v125.754C263.982,381.653,260.389,385.246,255,385.246z M192.123,367.281h53.895V259.491h-53.895
		V367.281z"/>
	<path d="M425.667,385.246h-71.86c-5.389,0-8.982-3.593-8.982-8.982V250.509c0-5.389,3.593-8.982,8.982-8.982h71.86
		c5.389,0,8.982,3.593,8.982,8.982v125.754C434.649,381.653,431.056,385.246,425.667,385.246z M362.789,367.281h53.895V259.491
		h-53.895V367.281z"/>
</g>
<g>
</g>
<g>
</g>
<g>
</g>
<g>
</g>
<g>
</g>
<g>
</g>
<g>
</g>
<g>
</g>
<g>
</g>
<g>
</g>
<g>
</g>
<g>
</g>
<g>
</g>
<g>
</g>
<g>
</g>
</svg>
