<svg width="20" height="20" viewBox="0 0 20 20" fill="none" xmlns="http://www.w3.org/2000/svg">
<path d="M12.4505 8.83781C12.2687 8.29656 11.9912 8.10281 11.6702 8.10281C11.279 8.10281 10.8227 8.39 10.3937 8.6875C10.1383 8.865 9.14991 9.95656 8.61085 9.95656C8.54907 9.95823 8.48835 9.94028 8.43741 9.90531C7.91116 9.53281 8.57053 7.90968 8.57053 7.13125C8.57053 6.37781 8.43366 6.09 8.22397 6.09C7.64428 6.09 6.50866 8.29718 6.19209 8.93406C6.10272 9.11375 5.97803 9.18468 5.83334 9.18468C5.32741 9.18468 4.57491 8.31437 4.22928 8.18093C4.17772 8.16001 4.12273 8.14878 4.06709 8.14781C3.48959 8.14781 3.50209 9.58437 3.51084 9.96562C3.82647 9.87937 4.12241 9.82625 4.38116 9.82625C5.03334 9.82625 5.44803 10.1641 5.33991 11.1556C5.31553 11.3784 5.17459 12.0884 5.40522 12.245C5.44224 12.2691 5.48577 12.2812 5.52991 12.2797C5.79584 12.2797 6.21709 11.9519 6.37366 11.8519C6.58428 11.7169 6.80522 11.6181 6.99209 11.6181C7.21709 11.6181 7.39272 11.7609 7.44303 12.1562C7.47303 12.3903 7.35834 13.2809 7.58772 13.4231C7.62137 13.4434 7.66 13.4539 7.69928 13.4534C8.12272 13.4534 8.84553 12.3953 9.17272 12.2741C9.32634 12.2172 9.48891 12.1883 9.65272 12.1887C10.088 12.1887 10.5021 12.3809 10.9255 12.5434C10.9968 12.5709 11.0549 12.5828 11.1021 12.5828C11.358 12.5828 11.2837 12.2275 11.0646 12.0003C10.7455 11.6678 10.2393 11.8137 9.88428 11.5756C9.43334 11.2731 10.0612 10.6653 10.3049 10.485C10.5958 10.2694 11.2408 9.92281 11.7555 9.92281C11.994 9.92281 12.2043 9.99718 12.338 10.1928C12.5908 10.5625 12.1702 11.0294 12.2765 11.4444C12.3212 11.6166 12.4293 11.6759 12.5574 11.6759C12.8302 11.6759 13.1918 11.4066 13.2168 11.3809C13.3831 11.2082 13.562 11.048 13.7521 10.9019C12.8021 10.6916 12.7215 9.64593 12.4505 8.83781Z" fill="#006EEE"/>
<path d="M4.66113 8.05908C4.66113 8.05908 5.48269 8.78376 5.83363 8.78376C5.90082 8.78376 5.95113 8.7572 5.97457 8.69283C6.47957 7.31001 7.54738 5.7297 8.24457 5.7297C8.54863 5.7297 8.78207 6.03064 8.86707 6.78064C8.97707 7.75158 8.30551 9.22314 8.62832 9.55845C8.63535 9.56556 8.6438 9.57112 8.65311 9.57478C8.66242 9.57844 8.67239 9.58012 8.68238 9.5797C9.04519 9.5797 10.4786 7.74408 11.7055 7.74408C11.7999 7.74384 11.894 7.7555 11.9855 7.77876C13.0908 8.0622 12.6118 9.94689 13.5089 10.4853C13.6575 10.5758 13.8278 10.6243 14.0018 10.6256C14.3324 10.6256 14.6343 10.4372 14.7064 10.0475C14.8886 9.06376 11.7643 7.15689 13.4546 7.15689C13.6971 7.15689 14.0386 7.19595 14.503 7.28283C14.7796 5.38783 14.683 4.86251 14.4355 4.86251C14.1533 4.86251 13.6746 5.5447 13.3261 5.6622C13.3161 5.66558 13.3055 5.66737 13.2949 5.66751C13.0958 5.66751 13.1027 4.95064 12.7621 4.95064C12.5421 4.95064 12.1774 5.2497 11.5193 6.23283C11.1799 6.74001 10.9258 6.94064 10.7252 6.94064C9.96207 6.94064 9.98363 4.02158 9.06801 4.02158C8.88301 4.02158 8.65988 4.14064 8.38426 4.42658C7.96113 4.86595 7.56613 5.02158 7.19644 5.02158C6.29613 5.02158 5.55019 4.09689 4.93863 4.09689C4.69738 4.09689 4.47644 4.24095 4.27582 4.64345C3.86051 5.47814 5.26676 5.43501 4.66113 8.05908ZM5.73707 8.4347C5.57269 8.36095 5.28082 8.16345 5.00707 7.93845C5.05769 7.69064 5.08894 7.46814 5.10707 7.26314C5.18426 7.13376 5.27926 7.00626 5.39519 6.88814C5.86738 6.40658 6.47238 6.25439 6.76894 6.53251C6.34613 7.11533 5.97394 7.82876 5.73707 8.4347ZM12.678 7.19283C12.5236 7.55814 12.8239 7.94376 13.2836 8.44783C13.2516 8.48287 13.2142 8.5127 13.173 8.53626C13.1292 8.56053 13.0817 8.57733 13.0324 8.58595C12.8861 8.0922 12.6408 7.61814 12.0618 7.4697C11.9767 7.44893 11.8898 7.43606 11.8024 7.43126C11.6455 6.92126 11.7183 6.4422 12.0155 6.27658C12.343 6.09314 12.8205 6.35501 13.1464 6.86314C12.9649 6.89783 12.7674 6.98158 12.678 7.19283Z" fill="#006EEE"/>
<path d="M15.0023 10.0544C14.9338 10.5016 15.5838 10.5816 15.2732 11.3141C15.1138 11.6888 13.7642 12.5525 13.8635 12.7416C14.0107 13.0181 14.1876 13.1256 14.3667 13.1256C14.721 13.1256 15.082 12.705 15.2273 12.3406C15.4176 11.8641 15.4667 10.6131 15.9304 10.3813C16.0088 10.3416 16.0863 10.3241 16.1629 10.3241C16.6207 10.3241 17.0485 10.9431 17.461 11.0269C17.5616 10.5788 17.4898 10.1138 17.5923 9.66315C15.851 9.64127 18.5598 7.26158 17.012 6.29065C16.9285 6.23846 16.8585 6.21502 16.7973 6.21534C16.3101 6.21534 16.4235 7.70721 15.1926 7.70721C15.0945 7.70721 14.9873 7.69752 14.8707 7.6769C14.4204 7.59752 14.1095 7.56065 13.906 7.56065C12.7204 7.56127 15.1945 8.80846 15.0023 10.0544Z" fill="#006EEE"/>
<path d="M18.0866 7.71658C18.131 7.44816 18.1333 7.17446 18.0934 6.90533C17.9816 6.15564 17.3956 5.54564 16.7875 5.54533C16.5797 5.54533 16.0822 5.63189 15.8469 6.37033C15.6886 6.30421 15.5289 6.24169 15.3678 6.18283C15.5069 5.24689 15.4547 4.60533 15.205 4.27751C15.1448 4.1955 15.066 4.12886 14.9752 4.08303C14.8843 4.03719 14.7839 4.01346 14.6822 4.01376C14.3553 4.01376 13.9881 4.23251 13.5319 4.70033L13.5153 4.65595C13.4184 4.39408 13.2566 3.95595 12.8222 3.95595C12.5253 3.95595 12.1322 4.13908 11.3059 5.34345C11.0663 5.32583 10.8264 5.31301 10.5863 5.30501L10.5419 5.14376C10.2841 4.1972 9.99156 3.1247 9.1675 3.12439C8.83156 3.12439 8.47781 3.3222 8.08625 3.72876C7.79469 4.03189 7.50625 4.17908 7.20406 4.17908C6.83562 4.17908 6.45844 3.96783 6.09344 3.76376C5.72438 3.55751 5.34313 3.34408 4.94875 3.34408C4.48125 3.34408 4.10125 3.63064 3.78688 4.22033C3.42781 4.89408 3.6275 5.33908 3.82062 5.7697C3.905 5.95751 3.99344 6.15658 4.05625 6.40095C1.96344 7.2997 0.625 8.66064 0.625 10.1866C0.625 14.4156 4.8225 19.375 10 19.375C15.1778 19.375 19.375 14.4156 19.375 10.1866C19.375 9.2847 18.9006 8.4422 18.0866 7.71658ZM10 18.7378C6.05906 18.7378 2.74531 15.6453 1.64312 12.4069C3.19281 13.9972 6.35188 15.0869 10 15.0869C13.6481 15.0869 16.8066 13.9972 18.3563 12.4072C17.2541 15.645 13.9406 18.7378 10 18.7378ZM13.4797 13.2735C13.4044 13.5103 13.1703 13.8703 12.88 14.1238C12.4319 14.5147 11.8856 14.5988 11.6253 14.3256C11.4066 14.095 11.4425 13.6666 11.6937 13.2656C12.2081 12.4444 12.9456 12.2644 13.2656 12.4269C13.2594 12.4494 13.2506 12.471 13.2463 12.495C13.2019 12.7447 13.2822 13.0066 13.4797 13.2735ZM18.2822 9.25845C17.9762 9.25845 17.8291 10.106 17.8072 10.6388C17.7878 11.1085 17.6522 11.265 17.4581 11.265C17.1788 11.265 16.7781 10.9413 16.4284 10.7581C16.3166 10.6994 16.2306 10.6735 16.1631 10.6735C15.9628 10.6735 15.9263 10.9075 15.8575 11.2388C15.7416 11.7978 15.6034 12.3778 15.3003 12.86C15.0778 13.2141 14.7337 13.4603 14.3891 13.4603C14.1625 13.4603 13.9356 13.3541 13.7425 13.1025C12.9831 12.1156 14.6513 11.9138 14.9838 11.2372C15.1763 10.846 15.1147 10.7097 14.9384 10.7097C14.5916 10.7097 13.8006 11.2391 13.6375 11.3888C13.3494 11.6522 13.0184 12.0403 12.6134 12.0403C12.545 12.0403 12.4741 12.0291 12.4009 12.0044C11.9712 11.8594 11.9109 11.3188 12.0019 10.9172C12.0775 10.5816 12.2516 10.28 11.8028 10.2628C11.787 10.2622 11.7712 10.2619 11.7553 10.2619C11.4663 10.2619 11.1709 10.3569 10.9088 10.4756C10.5906 10.62 10.1506 10.8781 10.0353 11.2572C9.99938 11.3738 10.7709 11.4953 10.8909 11.5416C11.4922 11.7766 11.7862 12.9081 11.1572 12.9081C11.0759 12.9081 10.9794 12.8891 10.8659 12.8478C10.4716 12.7006 10.075 12.4925 9.66219 12.4925C9.52656 12.4925 9.38938 12.515 9.25031 12.5697C8.96219 12.6828 8.80469 13.0056 8.57781 13.2078C8.24219 13.5091 7.94531 13.671 7.71219 13.671C7.39094 13.671 7.19094 13.3635 7.17812 12.6881C7.16687 12.1394 7.06156 11.9616 6.89125 11.9616C6.5875 11.9616 6.0775 12.5288 5.52969 12.5706C5.51375 12.5716 5.49844 12.5722 5.48375 12.5722C4.75281 12.5722 5.03719 11.1825 5.09406 10.7541C5.15625 10.2869 4.87437 10.121 4.44031 10.121C3.9525 10.121 3.27406 10.3303 2.67656 10.5575C2.70531 10.5831 2.73531 10.6056 2.76281 10.6338C3.30969 11.1794 3.48937 11.8991 3.16531 12.24C2.84062 12.5803 2.13469 12.4138 1.58844 11.8675C1.04219 11.3213 0.861875 10.6016 1.18656 10.261C1.46375 9.96814 1.89469 10.0666 2.26125 10.2619C2.74031 10.101 3.22625 9.96064 3.215 9.73439C3.12969 8.02314 3.615 7.70377 3.98969 7.70408C4.13251 7.70763 4.27222 7.74661 4.39625 7.81752C4.73438 5.6397 3.46594 5.49189 4.06188 4.37345C4.34406 3.84439 4.63875 3.66376 4.94938 3.66376C5.61719 3.66376 6.35813 4.49845 7.20469 4.49845C7.55438 4.49845 7.92219 4.35564 8.31 3.95283C8.65781 3.59158 8.93781 3.44376 9.16813 3.44376C10.1984 3.44408 10.2259 6.40314 10.815 6.40314C10.9281 6.40314 11.0622 6.29408 11.2275 6.03408C12.0916 4.6772 12.5513 4.27501 12.8225 4.27501C13.2181 4.27501 13.2128 5.13064 13.4744 5.13064C13.5281 5.13064 13.5938 5.09408 13.6763 5.00626C14.1103 4.54408 14.4444 4.33251 14.6825 4.33251C15.2441 4.33251 15.2719 5.50783 14.8144 7.33876C14.8144 7.33876 14.9166 7.3647 15.0663 7.3647C15.3853 7.3647 15.9188 7.24751 16.1275 6.51501C16.2591 6.05376 16.515 5.86439 16.7881 5.86439C17.2194 5.86439 17.6928 6.33626 17.785 6.95345C17.9528 8.08064 17.2094 8.87908 17.2675 9.21908C17.2775 9.27939 17.3072 9.30314 17.3516 9.30314C17.5181 9.30314 17.8922 8.96408 18.2188 8.96408C18.4622 8.96408 18.6797 9.15314 18.7634 9.81376C18.5722 9.41345 18.4128 9.25845 18.2822 9.25845Z" fill="#006EEE"/>
</svg>
