<svg width="26" height="26" viewBox="0 0 26 26" fill="none" xmlns="http://www.w3.org/2000/svg">
<path d="M11.325 9.10691L10.7156 8.50769L10.1062 9.10691L10.7156 9.70653L11.325 9.10691Z" fill="#006EEE"/>
<path d="M9.92065 7.0976L9.5144 7.49613L9.92065 7.89669L10.3269 7.49613L9.92065 7.0976Z" fill="#006EEE"/>
<path d="M11.498 8.39558L11.9043 8.79574L12.3105 8.39558L11.9043 7.99664L11.498 8.39558Z" fill="#006EEE"/>
<path d="M10.9187 10.6429L11.325 11.0435L11.7312 10.6429L11.325 10.2444L10.9187 10.6429Z" fill="#006EEE"/>
<path d="M8.65894 9.50665L8.25269 9.9064L8.65894 10.3057L9.06519 9.9064L8.65894 9.50665Z" fill="#006EEE"/>
<path d="M11.7312 7.69598L11.5281 7.49692L11.325 7.69598L11.5281 7.89667L11.7312 7.69598Z" fill="#006EEE"/>
<path d="M8.76929 6.54711L8.56616 6.34805L8.36304 6.54711L8.56616 6.7478L8.76929 6.54711Z" fill="#006EEE"/>
<path d="M8.56616 7.09677L8.36304 6.89771L8.15991 7.09677L8.36304 7.29705L8.56616 7.09677Z" fill="#006EEE"/>
<path d="M11.7012 9.70653L11.9043 9.9064L12.1074 9.70653L11.9043 9.50665L11.7012 9.70653Z" fill="#006EEE"/>
<path d="M8.86206 10.5056L9.06519 10.7055L9.26831 10.5056L9.06519 10.3058L8.86206 10.5056Z" fill="#006EEE"/>
<path d="M10.7156 11.5639L10.9187 11.7646L11.1218 11.5639L10.9187 11.3648L10.7156 11.5639Z" fill="#006EEE"/>
<path d="M20.4758 9.9251L21.0852 9.32507L20.4758 8.72626L19.8665 9.32507L20.4758 9.9251Z" fill="#006EEE"/>
<path d="M20.0862 7.71468L19.6799 7.31534L19.2737 7.71468L19.6799 8.11443L20.0862 7.71468Z" fill="#006EEE"/>
<path d="M16.9634 6.64951L17.3696 7.04926L17.7759 6.64951L17.3696 6.24976L16.9634 6.64951Z" fill="#006EEE"/>
<path d="M19.0852 11.7638L18.679 11.3648L18.2727 11.7638L18.679 12.1639L19.0852 11.7638Z" fill="#006EEE"/>
<path d="M21.6638 9.01348L22.0701 8.61373L21.6638 8.21439L21.2576 8.61373L21.6638 9.01348Z" fill="#006EEE"/>
<path d="M19.281 9.00698L18.8748 8.60764L18.4685 9.00698L18.8748 9.40673L19.281 9.00698Z" fill="#006EEE"/>
<path d="M21.4915 7.91457L21.2883 7.71469L21.0852 7.91457L21.2883 8.11444L21.4915 7.91457Z" fill="#006EEE"/>
<path d="M19.8831 6.44963L19.6799 6.24976L19.4768 6.44963L19.6799 6.64951L19.8831 6.44963Z" fill="#006EEE"/>
<path d="M21.4607 9.92428L21.6638 10.125L21.8669 9.92428L21.6638 9.72522L21.4607 9.92428Z" fill="#006EEE"/>
<path d="M19.0852 10.957L19.2883 11.1573L19.4915 10.957L19.2883 10.7575L19.0852 10.957Z" fill="#006EEE"/>
<path d="M17.3696 7.76021L17.5728 7.95968L17.7759 7.76021L17.5728 7.56033L17.3696 7.76021Z" fill="#006EEE"/>
<path d="M19.6633 11.869L19.8665 12.0697L20.0696 11.869L19.8665 11.6703L19.6633 11.869Z" fill="#006EEE"/>
<path d="M14.5459 2.91567L14.1396 2.51633L13.7334 2.91567L14.1396 3.31542L14.5459 2.91567Z" fill="#006EEE"/>
<path d="M14.6074 4.50939L15.0137 4.11005L14.6074 3.7103L14.2012 4.11005L14.6074 4.50939Z" fill="#006EEE"/>
<path d="M13.3271 5.45877L13.7334 5.85811L14.1396 5.45877L13.7334 5.05902L13.3271 5.45877Z" fill="#006EEE"/>
<path d="M15.1963 2.65972L14.9932 2.46106L14.79 2.65972L14.9932 2.8604L15.1963 2.65972Z" fill="#006EEE"/>
<path d="M16.2151 3.497L16.012 3.29834L15.8088 3.497L16.012 3.69809L16.2151 3.497Z" fill="#006EEE"/>
<path d="M13.9365 3.6973L13.7334 3.49783L13.5303 3.6973L13.7334 3.89758L13.9365 3.6973Z" fill="#006EEE"/>
<path d="M13.124 4.70924L13.3271 4.90912L13.5303 4.70924L13.3271 4.50937L13.124 4.70924Z" fill="#006EEE"/>
<path d="M12.1074 2.51631L11.9043 2.31644L11.7012 2.51631L11.9043 2.71619L12.1074 2.51631Z" fill="#006EEE"/>
<path d="M13.3271 2.11656L13.124 1.91669L12.9209 2.11656L13.124 2.31644L13.3271 2.11656Z" fill="#006EEE"/>
<path d="M25.1875 10.736C25.1875 9.04191 24.3104 7.77806 22.8268 6.87131C21.8753 5.88737 20.5904 5.19716 19.138 4.95991C18.2711 2.55369 15.8523 0.8125 13 0.8125C10.1973 0.8125 7.813 2.49275 6.90706 4.83356C5.97797 3.7895 5.109 2.80759 4.94569 2.60528C4.55772 2.12306 3.68428 1.29106 2.60894 1.29106C0.189719 1.29106 0.238875 2.87909 2.60894 2.98675C3.28737 3.01763 4.44803 4.10597 5.53597 5.31416C4.64145 5.65496 3.83287 6.18838 3.16753 6.87659C1.68797 7.78253 0.8125 9.04434 0.8125 10.736C0.8125 16.6697 5.76022 19.9473 12.0445 20.2475C11.8779 20.8735 11.6813 21.4272 11.451 21.8725C8.96309 22.0683 7.13131 22.7216 7.13131 23.4995C7.13172 24.4323 9.75934 25.1875 13 25.1875C16.2415 25.1875 18.8683 24.4323 18.8683 23.4995C18.8683 22.722 17.0402 22.0691 14.5551 21.8733C14.3292 21.4289 14.1359 20.8748 13.9709 20.2467C20.2475 19.942 25.1875 16.6648 25.1875 10.736ZM23.6884 10.6572C22.8816 12.8724 18.7119 13.908 13.596 13.9819C14.1444 13.0894 14.4666 12.0595 14.4666 10.957C14.4666 9.78941 14.1087 8.70147 13.4993 7.77359C14.5364 6.49472 16.1765 5.66313 18.0253 5.66313C21.0482 5.66272 23.5203 7.87759 23.6884 10.6572ZM13 1.61159C15.3591 1.61159 17.3838 2.96075 18.2402 4.87378C18.1679 4.87175 18.0972 4.86363 18.0249 4.86363C16.0006 4.86363 14.194 5.74194 13.0037 7.10978C11.8121 5.74031 10.0011 4.86363 7.97509 4.86363C7.90563 4.86363 7.83778 4.87134 7.76872 4.87337C8.62509 2.96156 10.6425 1.61159 13 1.61159ZM2.31156 10.6572C2.47975 7.87759 4.95178 5.66313 7.97469 5.66313C11.1061 5.66313 13.6537 8.03806 13.6537 10.957C13.6537 12.0827 13.2722 13.1251 12.6271 13.9839C7.41081 13.9372 3.13016 12.9045 2.31156 10.6572ZM15.7763 15.7174C14.0449 15.8482 12.3033 15.823 10.5848 15.615C8.86681 15.4111 7.16747 15.039 5.55587 14.443C7.254 14.7176 8.944 14.9086 10.6389 14.9935C12.3321 15.0715 14.0278 15.0625 15.7105 14.9212C17.3936 14.7908 19.0694 14.5405 20.6952 14.1176C21.5028 13.8958 22.3068 13.6398 23.051 13.2677C23.4248 13.0861 23.7794 12.8684 24.0914 12.5998C24.3961 12.3321 24.6634 11.9905 24.7118 11.5643C24.7532 11.9933 24.5363 12.4227 24.2523 12.753C23.9667 13.0894 23.6153 13.3624 23.2509 13.6049C22.5132 14.0802 21.7051 14.4292 20.8817 14.7111C19.2303 15.2758 17.5045 15.5675 15.7763 15.7174Z" fill="#006EEE"/>
</svg>
