<svg width="29" height="29" viewBox="0 0 29 29" fill="none" xmlns="http://www.w3.org/2000/svg">
<path d="M27.004 16.2577C28.7399 12.9508 25.2115 10.6575 20.5982 9.53284C20.9453 8.74395 21.0459 7.71128 20.0671 6.72528C18.812 5.46333 19.6462 3.625 19.6462 3.625C19.6462 3.625 17.0117 6.05511 18.6751 7.73077C19.2887 8.34838 19.6081 8.89077 19.7608 9.34434C18.4873 9.08184 17.1977 8.90413 15.9006 8.81238C16.2881 7.75931 16.3257 6.43664 15.105 5.17016C13.4338 3.43423 14.5467 0.90625 14.5467 0.90625C14.5467 0.90625 11.0336 4.24759 13.2517 6.55128C14.0614 7.39138 14.4878 8.13088 14.6944 8.75075C13.3196 8.70952 11.9965 8.76978 10.8211 8.93427C10.9611 8.25684 10.8442 7.47792 10.097 6.72573C8.84187 5.46378 9.67652 3.625 9.67652 3.625C9.67652 3.625 7.0416 6.05511 8.70548 7.73077C9.22657 8.25548 9.53198 8.72402 9.70734 9.13228C9.50887 9.17578 9.31629 9.22291 9.13096 9.27411C3.40255 8.73806 0.904023 9.92163 2.04544 12.2434C0.0535071 14.2354 0.802069 16.5087 3.29471 18.2482C4.59518 23.6046 4.93004 28.0938 14.7248 28.0938C23.4647 28.0938 24.6722 24.5186 25.7548 19.9429C29.0028 19.2963 28.3108 17.7394 27.004 16.2577ZM26.1943 15.7225C25.1063 18.0425 20.3848 19.7889 14.7248 19.7889C9.06526 19.7889 4.34369 18.0425 3.25529 15.7225C3.23218 15.6537 3.20998 15.5821 3.18777 15.5123C3.70615 14.1973 5.39087 13.0563 7.75709 12.2924C7.2011 12.8298 7.08555 13.6323 8.54869 13.9137C8.96738 13.9943 10.117 13.7152 9.61444 12.2888C9.54421 12.0894 9.42957 11.9557 9.28865 11.875C10.9145 11.503 12.76 11.2887 14.7248 11.2887C14.945 11.2887 15.1611 11.2964 15.3782 11.3014C14.2445 11.7038 13.3196 12.9435 15.6347 13.3092C16.1458 13.3898 17.5491 13.1107 16.9356 11.6843C16.882 11.5571 16.7961 11.4462 16.6864 11.3626C18.8555 11.5221 20.8207 11.9398 22.4093 12.542C21.0124 12.4641 19.4627 13.325 21.9444 14.5372C22.4769 14.7973 24.0945 15.036 23.872 13.461C23.8559 13.3472 23.8158 13.2381 23.7542 13.1411C25.0243 13.8103 25.9102 14.6219 26.2614 15.5123L26.1943 15.7225Z" fill="#348BF2"/>
<path d="M11.7072 16.6936C13.1722 16.6936 14.1491 15.3691 14.9145 14.8507C15.9838 14.1257 18.6727 13.843 16.3046 13.7859C14.0585 13.7319 11.2854 15.5553 9.4321 15.4298C6.36354 15.2214 9.50641 16.6936 11.7072 16.6936Z" fill="#348BF2"/>
<path d="M14.8729 19.3996C15.3904 19.4993 16.8127 19.154 16.1906 17.39C15.4878 15.394 11.2334 18.6991 14.8729 19.3996Z" fill="#348BF2"/>
<path d="M6.81826 15.0338C6.3239 14.336 5.60705 13.451 5.31026 13.9118C4.90471 14.5421 4.77693 15.8104 5.07146 15.8666C7.38058 16.3093 7.21882 15.5988 6.81826 15.0338Z" fill="#348BF2"/>
<path d="M20.2421 15.3165C20.6586 14.8009 19.8271 13.5598 19.2933 13.7768C18.4577 14.1166 17.9761 13.8865 17.609 14.4021C16.7495 15.6097 19.6762 16.0166 20.2421 15.3165Z" fill="#348BF2"/>
<path d="M19.9818 16.7942C19.3828 16.53 19.5242 17.415 18.6392 16.7049C18.0058 16.1965 16.6428 17.4789 17.5418 18.3498C18.5423 19.319 18.8087 18.3978 19.2292 18.4753C20.0838 18.6325 21.5533 17.4875 19.9818 16.7942Z" fill="#348BF2"/>
<path d="M10.0213 17.0969C9.70913 16.7896 9.29045 17.1603 9.05391 17.6125C8.81965 17.4974 8.62888 17.4707 8.62888 17.4707C8.4499 16.9605 7.91748 16.6107 7.91748 16.6107C7.91748 16.6107 7.96596 17.1413 8.0362 17.4C7.44804 17.1911 7.42991 16.1399 7.42991 16.1399C7.42991 16.1399 7.03524 16.3759 7.07104 16.777C6.42352 16.2545 5.87207 16.4987 5.87207 16.4987C5.87207 16.4987 6.69359 16.9609 6.80687 17.2727C6.34559 17.3085 6.07643 17.468 5.91965 17.8391C5.9201 17.8423 6.83134 17.4054 7.50559 17.7208C7.2396 17.9383 7.37191 18.4816 7.37191 18.4816C7.99949 17.8164 8.50065 17.8876 8.90166 18.0067C8.85318 18.2102 8.85635 18.396 8.94245 18.5088C9.63799 19.4232 12.0609 19.2175 12.7115 18.5414C13.4995 17.7235 11.31 18.3652 10.0213 17.0969Z" fill="#348BF2"/>
<path d="M11.7327 13.6526C11.5266 14.0668 11.5252 14.3795 11.7635 14.7048C11.7667 14.7057 11.8596 13.6998 12.4763 13.2829C12.5266 13.6227 13.0604 13.7877 13.0604 13.7877C12.6335 12.276 13.8796 12.1972 13.8737 11.6548C13.2131 11.7106 12.8379 12.1909 12.8379 12.1909C12.3082 12.0826 11.7341 12.3594 11.7341 12.3594C11.7341 12.3594 12.2149 12.5901 12.4727 12.663C11.9915 13.0604 11.0798 12.5361 11.0798 12.5361C11.0798 12.5361 11.0798 12.9965 11.4423 13.171C10.6615 13.4587 10.5881 14.0568 10.5881 14.0568C10.5881 14.0568 11.4065 13.5897 11.7327 13.6526Z" fill="#348BF2"/>
<path d="M23.3104 15.7171C23.498 15.3609 23.2243 14.9907 23.2243 14.9907C23.2243 14.9907 22.8034 15.9545 22.1803 15.9214C22.3444 15.7094 22.5936 15.2381 22.5936 15.2381C22.5936 15.2381 21.9674 15.3573 21.6058 15.7592C21.6058 15.7592 21.0185 15.5966 20.4548 15.9446C20.7729 16.3841 21.8215 15.7058 22.3774 17.1748C22.3774 17.1748 22.7082 16.7248 22.5465 16.4217C23.2905 16.3895 23.9638 17.1426 23.9661 17.1399C23.9634 16.7366 23.7767 16.4865 23.3639 16.2762C23.5886 16.032 24.5248 15.921 24.5248 15.921C24.5248 15.921 24.1097 15.4837 23.3104 15.7171Z" fill="#348BF2"/>
</svg>
