<?xml version="1.0" encoding="iso-8859-1"?>
<!-- Generator: Adobe Illustrator 19.0.0, SVG Export Plug-In . SVG Version: 6.00 Build 0)  -->
<svg version="1.1" id="Layer_1" xmlns="http://www.w3.org/2000/svg" xmlns:xlink="http://www.w3.org/1999/xlink" x="0px" y="0px"
	 viewBox="0 0 512 512" style="enable-background:new 0 0 512 512;" xml:space="preserve">
<path style="fill:#D68231;" d="M283.871,148.631c0-35.691-23.805-0.965-23.805-65.962V53.46c0-3.192-2.611-5.803-5.804-5.803
	h-20.432c-3.192,0-5.804,2.611-5.804,5.803v29.21c0,64.997-23.804,30.271-23.804,65.962v92.842c0,4.789,3.916,8.706,8.705,8.706
	h62.238c4.789,0,8.705-3.917,8.705-8.706V148.631z"/>
<rect x="228.027" y="56.748" style="opacity:0.2;enable-background:new    ;" width="32.04" height="12.574"/>
<rect x="222.184" y="148.218" style="fill:#FFFFFF;" width="43.726" height="79.555"/>
<path style="fill:#A4A9AD;" d="M265.153,56.241c0,2.911-2.382,5.292-5.292,5.292h-31.628c-2.911,0-5.292-2.382-5.292-5.292V46.2
	c0-2.911,2.382-5.292,5.292-5.292h31.628c2.911,0,5.292,2.382,5.292,5.292V56.241z"/>
<path style="fill:#D68231;" d="M164.987,162.244c0-35.691-23.805-0.965-23.805-65.962V67.073c0-3.192-2.611-5.804-5.804-5.804
	h-20.432c-3.192,0-5.804,2.611-5.804,5.804v29.21c0,64.997-23.804,30.271-23.804,65.962v92.842c0,4.789,3.916,8.706,8.705,8.706
	h62.238c4.789,0,8.705-3.917,8.705-8.706L164.987,162.244z"/>
<rect x="109.139" y="70.357" style="opacity:0.2;enable-background:new    ;" width="32.04" height="12.574"/>
<rect x="103.297" y="161.83" style="fill:#FFFFFF;" width="43.726" height="79.555"/>
<path style="fill:#A4A9AD;" d="M146.268,69.854c0,2.911-2.382,5.292-5.292,5.292h-31.628c-2.911,0-5.292-2.382-5.292-5.292V59.813
	c0-2.911,2.382-5.292,5.292-5.292h31.628c2.911,0,5.292,2.382,5.292,5.292V69.854z"/>
<rect x="33.276" y="216.31" style="fill:#00AD68;" width="445.438" height="240.369"/>
<rect x="33.276" y="418.838" style="opacity:0.1;enable-background:new    ;" width="47.07" height="22.653"/>
<rect x="169.081" y="255.103" style="opacity:0.1;enable-background:new    ;" width="47.07" height="22.653"/>
<rect x="215.484" y="395.224" style="opacity:0.1;enable-background:new    ;" width="47.07" height="22.653"/>
<rect x="323.226" y="349.413" style="opacity:0.1;enable-background:new    ;" width="47.07" height="22.653"/>
<rect x="411.725" y="408.973" style="opacity:0.1;enable-background:new    ;" width="47.07" height="22.653"/>
<rect x="340.352" y="233.489" style="opacity:0.1;enable-background:new    ;" width="47.07" height="22.653"/>
<rect x="455.176" y="297.527" style="opacity:0.1;enable-background:new    ;" width="23.54" height="22.653"/>
<rect x="33.276" y="305.296" style="opacity:0.1;enable-background:new    ;" width="23.54" height="22.653"/>
<rect x="338.161" y="148.218" style="fill:#A4A9AD;" width="102.28" height="53.389"/>
<rect x="338.161" y="148.218" style="opacity:0.1;enable-background:new    ;" width="102.28" height="20.175"/>
<path style="fill:#D1D3D3;" d="M447.954,132.718c0-2.987-2.445-5.432-5.432-5.432H336.084c-2.988,0-5.432,2.445-5.432,5.432v14.856
	c0,2.987,2.445,5.432,5.432,5.432h106.439c2.988,0,5.432-2.445,5.432-5.432v-14.856H447.954z"/>
<path style="fill:#333E48;" d="M478.716,244.815V199.66c0-5.976-4.889-10.864-10.864-10.864H44.142
	c-5.975,0-10.864,4.889-10.864,10.864v45.155L478.716,244.815L478.716,244.815z"/>
<rect x="346.756" y="287.45" style="fill:#FFB819;" width="102.28" height="169.218"/>
<circle style="fill:#333E48;" cx="372.509" cy="380.68" r="8.622"/>
<path style="fill:#FFFFFF;" d="M77.114,406.552c-5.975,0-10.864-4.889-10.864-10.864V287.455c0-5.976,4.889-10.864,10.864-10.864
	h221.501c5.975,0,10.864,4.889,10.864,10.864v108.232c0,5.975-4.889,10.864-10.864,10.864H77.114z"/>
<g>
	<polygon style="fill:#218649;" points="87.978,384.823 87.978,298.318 137.921,384.823 	"/>
	<polygon style="fill:#218649;" points="137.921,384.823 187.864,298.318 237.807,384.823 	"/>
</g>
<g>
	<polygon style="fill:#FFB819;" points="187.864,298.318 137.921,384.823 87.978,298.318 	"/>
	<polygon style="fill:#FFB819;" points="287.749,298.318 237.807,384.823 187.864,298.318 	"/>
</g>
<polygon style="fill:#218649;" points="237.807,384.823 287.749,298.318 287.749,384.823 "/>
<path style="fill:#333E48;" d="M504.061,466.816c0,2.351-1.922,4.275-4.275,4.275H12.214c-2.352,0-4.275-1.924-4.275-4.275v-15.302
	c0-2.353,1.923-4.277,4.275-4.277h487.573c2.353,0,4.275,1.924,4.275,4.277V466.816z"/>
<rect x="335.124" y="447.237" style="fill:#A4A9AD;" width="125.567" height="23.855"/>
<path style="fill:#1E252B;" d="M499.786,439.299h-13.131V199.66c0-10.368-8.435-18.803-18.803-18.803h-19.469v-21.284
	c4.439-2.177,7.511-6.73,7.511-11.999v-14.856c0-7.372-5.998-13.371-13.371-13.371h-106.44c-7.372,0-13.371,5.997-13.371,13.371
	v14.856c0,5.269,3.072,9.823,7.511,11.999v21.284H291.81l-0.001-32.225c0-18.334-6.024-23.226-13.302-27.335
	c-4.678-2.642-10.502-5.93-10.502-38.627V66.647c3.091-2.425,5.087-6.183,5.087-10.406V46.2c0-7.296-5.935-13.231-13.231-13.231
	h-31.628c-7.296,0-13.231,5.935-13.231,13.231v10.041c0,4.223,1.996,7.983,5.088,10.407V82.67c0,32.698-5.823,35.986-10.502,38.627
	c-7.278,4.109-13.302,9.001-13.302,27.335v32.225h-23.357l-0.001-18.613c0-18.334-6.024-23.226-13.302-27.335
	c-4.68-2.642-10.502-5.93-10.502-38.627V80.26c3.091-2.425,5.087-6.183,5.087-10.406V59.813c0-7.296-5.935-13.231-13.231-13.231
	h-31.628c-7.296,0-13.231,5.935-13.231,13.231v10.041c0,4.223,1.996,7.982,5.088,10.406v16.022c0,32.698-5.823,35.985-10.502,38.627
	c-7.277,4.109-13.302,9.001-13.302,27.335v18.613H44.142c-10.368,0-18.803,8.435-18.803,18.803v239.639H12.214
	C5.479,439.299,0,444.777,0,451.513v15.302c0,6.735,5.479,12.215,12.214,12.215h487.573c6.735,0,12.214-5.48,12.214-12.215v-15.302
	C512,444.777,506.521,439.299,499.786,439.299z M338.589,135.224h101.426v9.843H338.589V135.224z M432.505,160.944v19.913H346.1
	v-19.913H432.505z M230.878,48.846h26.336v4.748h-26.336V48.846z M212.161,148.631c0-10.556,1.639-11.481,5.23-13.509
	c10.162-5.737,18.574-13.644,18.574-52.453V69.472h16.162v13.197c0,38.809,8.412,46.716,18.574,52.454
	c3.591,2.027,5.23,2.952,5.23,13.508l0.001,32.225h-63.771V148.631z M111.995,62.46h26.336v4.748h-26.336V62.46z M93.278,162.244
	c0-10.556,1.639-11.481,5.23-13.508c10.162-5.737,18.574-13.644,18.574-52.454V83.085h16.162v13.197
	c0,38.809,8.412,46.716,18.574,52.454c3.591,2.027,5.23,2.953,5.23,13.508l0.001,18.613H93.278V162.244z M41.215,199.66
	c0-1.587,1.34-2.926,2.926-2.926h423.711c1.586,0,2.926,1.34,2.926,2.926v37.216H41.215V199.66z M41.215,252.753h429.563v186.546
	h-13.798V287.455c0-4.384-3.554-7.939-7.939-7.939H346.759c-4.384,0-7.939,3.554-7.939,7.939v151.843H41.215V252.753z
	 M441.102,295.394v143.905h-86.404V295.394H441.102z M496.123,463.154H15.877v-7.978h480.246V463.154z M372.509,389.308
	c4.761,0,8.621-3.86,8.621-8.621c0-4.762-3.86-8.622-8.621-8.622c-4.762,0-8.622,3.86-8.622,8.622
	C363.888,385.448,367.748,389.308,372.509,389.308z M298.615,268.652H77.114c-10.368,0-18.803,8.435-18.803,18.803v108.232
	c0,10.368,8.435,18.803,18.803,18.803h221.501c10.368,0,18.803-8.435,18.803-18.803V287.455
	C317.417,277.086,308.982,268.652,298.615,268.652z M301.54,395.687c0,1.587-1.34,2.926-2.926,2.926H77.114
	c-1.587,0-2.926-1.34-2.926-2.926V287.455c0-1.586,1.34-2.926,2.926-2.926h221.501c1.586,0,2.926,1.34,2.926,2.926L301.54,395.687
	L301.54,395.687z"/>
<g>
</g>
<g>
</g>
<g>
</g>
<g>
</g>
<g>
</g>
<g>
</g>
<g>
</g>
<g>
</g>
<g>
</g>
<g>
</g>
<g>
</g>
<g>
</g>
<g>
</g>
<g>
</g>
<g>
</g>
</svg>
